<?xml version="1.0" ?><svg height="81.745712" id="svg8" version="1.1" viewBox="0 0 15.974657 21.628554" width="60.376656" xmlns="http://www.w3.org/2000/svg" xmlns:cc="http://creativecommons.org/ns#" xmlns:dc="http://purl.org/dc/elements/1.1/" xmlns:inkscape="http://www.inkscape.org/namespaces/inkscape" xmlns:rdf="http://www.w3.org/1999/02/22-rdf-syntax-ns#" xmlns:sodipodi="http://sodipodi.sourceforge.net/DTD/sodipodi-0.dtd" xmlns:svg="http://www.w3.org/2000/svg"><defs id="defs2"><clipPath clipPathUnits="userSpaceOnUse" id="clipPath23"><rect height="170.00711" id="rect25" style="opacity:1;fill:none;fill-opacity:1;stroke:#000000;stroke-width:1.5;stroke-linecap:round;stroke-linejoin:round;stroke-miterlimit:4;stroke-dasharray:none;stroke-dashoffset:0;stroke-opacity:0.97641512" transform="rotate(90)" width="263.84616" x="6.7847877" y="110.36194"/></clipPath></defs><g id="layer1" transform="translate(55.810653,-489.79754)"><rect height="58.184261" id="rect8011" ry="1.1433572" style="opacity:1;fill:none;fill-opacity:1;stroke:none;stroke-width:1.10699999;stroke-linecap:round;stroke-linejoin:round;stroke-miterlimit:4;stroke-dasharray:none;stroke-dashoffset:0;stroke-opacity:1" width="150.11761" x="-377.22021" y="-198.90477"/></g><g id="g8681" transform="translate(55.810653,-489.79754)"><rect height="58.184261" id="rect8677" ry="1.1433572" style="opacity:1;fill:none;fill-opacity:1;stroke:none;stroke-width:1.10699999;stroke-linecap:round;stroke-linejoin:round;stroke-miterlimit:4;stroke-dasharray:none;stroke-dashoffset:0;stroke-opacity:1" width="150.11761" x="-377.22021" y="-198.90477"/></g><g id="g9233" transform="translate(55.810653,-489.79754)"><rect height="58.184261" id="rect9229" ry="1.1433572" style="opacity:1;fill:none;fill-opacity:1;stroke:none;stroke-width:1.10699999;stroke-linecap:round;stroke-linejoin:round;stroke-miterlimit:4;stroke-dasharray:none;stroke-dashoffset:0;stroke-opacity:1" width="150.11761" x="-377.22021" y="-198.90477"/><rect height="368.83194" id="rect9311" ry="1.1433572" style="opacity:1;fill:none;fill-opacity:1;stroke:none;stroke-width:1.10699999;stroke-linecap:round;stroke-linejoin:round;stroke-miterlimit:4;stroke-dasharray:none;stroke-dashoffset:0;stroke-opacity:1" width="313.2399" x="-594.38983" y="-161.63449"/><ellipse cx="-47.919792" cy="511.11499" id="path981-7-0-6-9" rx="3.877409" ry="0.31109855" style="opacity:1;fill:#b3b3b3;fill-opacity:1;stroke:none;stroke-width:0.79707766;stroke-linecap:round;stroke-linejoin:round;stroke-miterlimit:4;stroke-dasharray:none;stroke-dashoffset:0;stroke-opacity:1"/><path d="m -50.215185,510.75668 h 4.700132" id="path977-8-5-8-1" style="opacity:1;fill:none;fill-opacity:1;stroke:#241f1c;stroke-width:0.51981038;stroke-linecap:round;stroke-linejoin:round;stroke-miterlimit:4;stroke-dasharray:none;stroke-dashoffset:0;stroke-opacity:1"/><path d="m -47.20985,507.89605 c 0,0 2.706517,0.21516 2.171975,-2.53812" id="path972-85-1-7-2" style="opacity:1;fill:none;fill-opacity:1;stroke:#241f1c;stroke-width:0;stroke-linecap:round;stroke-linejoin:round;stroke-miterlimit:4;stroke-dasharray:none;stroke-dashoffset:0;stroke-opacity:1"/><path d="m -48.490566,510.72015 -0.04063,-14.12729 1.337651,-1.4e-4 0.07813,14.11533 z" id="path979-8-6-6-8-0-8-4-4-0-5" style="opacity:1;fill:#784421;fill-opacity:1;stroke:#241f1c;stroke-width:0.60761064;stroke-linecap:round;stroke-linejoin:round;stroke-miterlimit:4;stroke-dasharray:none;stroke-dashoffset:0;stroke-opacity:1"/><path d="m -47.20985,507.89605 c 0,0 2.706517,0.21516 2.171975,-2.53812" id="path8297" style="opacity:1;fill:none;fill-opacity:1;stroke:#241f1c;stroke-width:0;stroke-linecap:round;stroke-linejoin:round;stroke-miterlimit:4;stroke-dasharray:none;stroke-dashoffset:0;stroke-opacity:1"/><path d="m -48.390917,490.3115 a 6.2603499,7.9694656 14.58222 0 0 -6.704883,6.80671 6.2603499,7.9694656 14.58222 0 0 4.578945,8.8607 6.2603499,7.9694656 14.58222 0 0 0.243003,0.0308 5.0616189,6.9792517 48.845804 0 0 7.722318,-2.49604 5.0616189,6.9792517 48.845804 0 0 0.73823,-8.21957 5.0616189,6.9792517 48.845804 0 0 -1.093124,-0.59735 6.2603499,7.9694656 14.58222 0 0 -4.41099,-4.31854 6.2603499,7.9694656 14.58222 0 0 -1.073499,-0.0665 z" id="path8321" style="opacity:1;fill:#5fd35f;fill-opacity:1;stroke:#241f1c;stroke-width:1.0182327;stroke-linecap:round;stroke-linejoin:round;stroke-miterlimit:4;stroke-dasharray:none;stroke-dashoffset:0;stroke-opacity:1"/><path d="m -47.20985,507.89605 c 0,0 2.706517,0.21516 2.171975,-2.53812" id="path8849" style="opacity:1;fill:none;fill-opacity:1;stroke:#241f1c;stroke-width:0;stroke-linecap:round;stroke-linejoin:round;stroke-miterlimit:4;stroke-dasharray:none;stroke-dashoffset:0;stroke-opacity:1"/></g></svg>